<mxfile host="app.diagrams.net" modified="2024-02-01T13:12:42.007Z" agent="Mozilla/5.0 (Windows NT 10.0; Win64; x64) AppleWebKit/537.36 (KHTML, like Gecko) Chrome/121.0.0.0 Safari/537.36" version="23.0.2" etag="qPhLa2-wBdpoSBmDD_pl" type="github">
  <diagram name="第 1 页" id="I1a-TC9XpGuG2HYQnvKg">
    <mxGraphModel>
      <root>
        <mxCell id="0" />
        <mxCell id="1" parent="0" />
      </root>
    </mxGraphModel>
  </diagram>
</mxfile>
